<mxfile host="Electron" modified="2023-12-13T11:58:57.933Z" agent="Mozilla/5.0 (Windows NT 10.0; Win64; x64) AppleWebKit/537.36 (KHTML, like Gecko) draw.io/22.1.2 Chrome/114.0.5735.289 Electron/25.9.4 Safari/537.36" etag="BkvzLGNVTGnmX_ruV1Wj" version="22.1.2" type="device">
  <diagram name="Trang-1" id="13VHSkhIfqtQCEexmsIi">
    <mxGraphModel dx="649" dy="761" grid="1" gridSize="10" guides="1" tooltips="1" connect="1" arrows="1" fold="1" page="1" pageScale="1" pageWidth="827" pageHeight="1169" math="0" shadow="0">
      <root>
        <mxCell id="0" />
        <mxCell id="1" parent="0" />
        <mxCell id="FZnqLoCsShf8wST_4rnK-1" value=":Profile Page" style="shape=umlLifeline;perimeter=lifelinePerimeter;whiteSpace=wrap;html=1;container=0;dropTarget=0;collapsible=0;recursiveResize=0;outlineConnect=0;portConstraint=eastwest;newEdgeStyle={&quot;edgeStyle&quot;:&quot;elbowEdgeStyle&quot;,&quot;elbow&quot;:&quot;vertical&quot;,&quot;curved&quot;:0,&quot;rounded&quot;:0};fillColor=#fff2cc;strokeColor=#d6b656;" vertex="1" parent="1">
          <mxGeometry x="358.07" y="80" width="100" height="520" as="geometry" />
        </mxCell>
        <mxCell id="FZnqLoCsShf8wST_4rnK-2" value="" style="html=1;points=[];perimeter=orthogonalPerimeter;outlineConnect=0;targetShapes=umlLifeline;portConstraint=eastwest;newEdgeStyle={&quot;edgeStyle&quot;:&quot;elbowEdgeStyle&quot;,&quot;elbow&quot;:&quot;vertical&quot;,&quot;curved&quot;:0,&quot;rounded&quot;:0};fillColor=#dae8fc;strokeColor=#6c8ebf;" vertex="1" parent="FZnqLoCsShf8wST_4rnK-1">
          <mxGeometry x="45" y="110" width="10" height="30" as="geometry" />
        </mxCell>
        <mxCell id="FZnqLoCsShf8wST_4rnK-3" value="" style="html=1;points=[[0,0,0,0,5],[0,1,0,0,-5],[1,0,0,0,5],[1,1,0,0,-5]];perimeter=orthogonalPerimeter;outlineConnect=0;targetShapes=umlLifeline;portConstraint=eastwest;newEdgeStyle={&quot;curved&quot;:0,&quot;rounded&quot;:0};fillColor=#dae8fc;strokeColor=#6c8ebf;" vertex="1" parent="FZnqLoCsShf8wST_4rnK-1">
          <mxGeometry x="45" y="170" width="10" height="30" as="geometry" />
        </mxCell>
        <mxCell id="FZnqLoCsShf8wST_4rnK-4" value="Database" style="shape=umlLifeline;perimeter=lifelinePerimeter;whiteSpace=wrap;html=1;container=0;dropTarget=0;collapsible=0;recursiveResize=0;outlineConnect=0;portConstraint=eastwest;newEdgeStyle={&quot;edgeStyle&quot;:&quot;elbowEdgeStyle&quot;,&quot;elbow&quot;:&quot;vertical&quot;,&quot;curved&quot;:0,&quot;rounded&quot;:0};fillColor=#fff2cc;strokeColor=#d6b656;" vertex="1" parent="1">
          <mxGeometry x="632.07" y="80" width="100" height="540" as="geometry" />
        </mxCell>
        <mxCell id="FZnqLoCsShf8wST_4rnK-5" value="" style="html=1;points=[];perimeter=orthogonalPerimeter;outlineConnect=0;targetShapes=umlLifeline;portConstraint=eastwest;newEdgeStyle={&quot;edgeStyle&quot;:&quot;elbowEdgeStyle&quot;,&quot;elbow&quot;:&quot;vertical&quot;,&quot;curved&quot;:0,&quot;rounded&quot;:0};fillColor=#dae8fc;strokeColor=#6c8ebf;" vertex="1" parent="FZnqLoCsShf8wST_4rnK-4">
          <mxGeometry x="45" y="160" width="10" height="250" as="geometry" />
        </mxCell>
        <mxCell id="FZnqLoCsShf8wST_4rnK-6" value="Cập nhật dữ liệu" style="html=1;align=left;spacingLeft=2;endArrow=block;rounded=0;edgeStyle=orthogonalEdgeStyle;curved=0;rounded=0;" edge="1" parent="FZnqLoCsShf8wST_4rnK-4" source="FZnqLoCsShf8wST_4rnK-5" target="FZnqLoCsShf8wST_4rnK-5">
          <mxGeometry relative="1" as="geometry">
            <mxPoint x="60.92999999999995" y="201.5" as="sourcePoint" />
            <Array as="points">
              <mxPoint x="78" y="202" />
              <mxPoint x="78" y="238" />
            </Array>
            <mxPoint x="55.00142857142839" y="238.50000000000023" as="targetPoint" />
          </mxGeometry>
        </mxCell>
        <mxCell id="FZnqLoCsShf8wST_4rnK-7" value="Nhập các thông tin cần thay đổi vào form" style="html=1;verticalAlign=bottom;endArrow=block;curved=0;rounded=0;" edge="1" parent="1" source="FZnqLoCsShf8wST_4rnK-20" target="FZnqLoCsShf8wST_4rnK-2">
          <mxGeometry width="80" relative="1" as="geometry">
            <mxPoint x="222.07" y="290" as="sourcePoint" />
            <mxPoint x="452.07" y="330" as="targetPoint" />
          </mxGeometry>
        </mxCell>
        <mxCell id="FZnqLoCsShf8wST_4rnK-8" value="Nhấn vào nút lưu thay đổi" style="html=1;verticalAlign=bottom;endArrow=block;curved=0;rounded=0;" edge="1" parent="1" source="FZnqLoCsShf8wST_4rnK-21" target="FZnqLoCsShf8wST_4rnK-3">
          <mxGeometry x="0.0019" width="80" relative="1" as="geometry">
            <mxPoint x="152.07" y="250" as="sourcePoint" />
            <mxPoint x="403.07" y="234.58000000000004" as="targetPoint" />
            <mxPoint as="offset" />
          </mxGeometry>
        </mxCell>
        <mxCell id="FZnqLoCsShf8wST_4rnK-9" value="Gửi thông tin của người dùng" style="html=1;verticalAlign=bottom;endArrow=block;curved=0;rounded=0;exitX=1;exitY=1;exitDx=0;exitDy=-5;exitPerimeter=0;" edge="1" parent="1" source="FZnqLoCsShf8wST_4rnK-3" target="FZnqLoCsShf8wST_4rnK-4">
          <mxGeometry width="80" relative="1" as="geometry">
            <mxPoint x="522.07" y="280" as="sourcePoint" />
            <mxPoint x="602.07" y="280" as="targetPoint" />
          </mxGeometry>
        </mxCell>
        <mxCell id="FZnqLoCsShf8wST_4rnK-10" value="alt" style="shape=umlFrame;whiteSpace=wrap;html=1;pointerEvents=0;width=40;height=20;fillColor=#d5e8d4;strokeColor=#82b366;" vertex="1" parent="1">
          <mxGeometry x="32.07" y="360" width="690" height="200" as="geometry" />
        </mxCell>
        <mxCell id="FZnqLoCsShf8wST_4rnK-11" value="" style="endArrow=none;dashed=1;html=1;rounded=0;entryX=1;entryY=0.502;entryDx=0;entryDy=0;entryPerimeter=0;exitX=-0.003;exitY=0.51;exitDx=0;exitDy=0;exitPerimeter=0;fillColor=#fff2cc;strokeColor=#d6b656;" edge="1" parent="1" source="FZnqLoCsShf8wST_4rnK-10" target="FZnqLoCsShf8wST_4rnK-10">
          <mxGeometry width="50" height="50" relative="1" as="geometry">
            <mxPoint x="402.07" y="470" as="sourcePoint" />
            <mxPoint x="452.07" y="420" as="targetPoint" />
          </mxGeometry>
        </mxCell>
        <mxCell id="FZnqLoCsShf8wST_4rnK-12" value="" style="html=1;points=[[0,0,0,0,5],[0,1,0,0,-5],[1,0,0,0,5],[1,1,0,0,-5]];perimeter=orthogonalPerimeter;outlineConnect=0;targetShapes=umlLifeline;portConstraint=eastwest;newEdgeStyle={&quot;curved&quot;:0,&quot;rounded&quot;:0};fillColor=#dae8fc;strokeColor=#6c8ebf;" vertex="1" parent="1">
          <mxGeometry x="403.07" y="370" width="10" height="80" as="geometry" />
        </mxCell>
        <mxCell id="FZnqLoCsShf8wST_4rnK-13" value="Trả về thông báo cập nhật thành công" style="html=1;verticalAlign=bottom;endArrow=open;dashed=1;endSize=8;curved=0;rounded=0;" edge="1" parent="1">
          <mxGeometry relative="1" as="geometry">
            <mxPoint x="677.07" y="390" as="sourcePoint" />
            <mxPoint x="413.07" y="390" as="targetPoint" />
          </mxGeometry>
        </mxCell>
        <mxCell id="FZnqLoCsShf8wST_4rnK-14" value="Chuyển hướng tới trang hồ sơ thông tin cá nhân" style="html=1;align=left;spacingLeft=2;endArrow=block;rounded=0;edgeStyle=orthogonalEdgeStyle;curved=0;rounded=0;" edge="1" parent="1" source="FZnqLoCsShf8wST_4rnK-12" target="FZnqLoCsShf8wST_4rnK-12">
          <mxGeometry x="0.0027" relative="1" as="geometry">
            <mxPoint x="432.07" y="414" as="sourcePoint" />
            <Array as="points">
              <mxPoint x="430" y="414" />
              <mxPoint x="430" y="440" />
            </Array>
            <mxPoint x="432.07" y="450" as="targetPoint" />
            <mxPoint as="offset" />
          </mxGeometry>
        </mxCell>
        <mxCell id="FZnqLoCsShf8wST_4rnK-15" value="[Cập nhật thành công]" style="text;html=1;align=center;verticalAlign=middle;resizable=0;points=[];autosize=1;strokeColor=none;fillColor=none;" vertex="1" parent="1">
          <mxGeometry x="42.06999999999999" y="390" width="140" height="30" as="geometry" />
        </mxCell>
        <mxCell id="FZnqLoCsShf8wST_4rnK-16" value="[Cập nhật thất bại]" style="text;html=1;align=center;verticalAlign=middle;resizable=0;points=[];autosize=1;strokeColor=none;fillColor=none;" vertex="1" parent="1">
          <mxGeometry x="52.06999999999999" y="460" width="120" height="30" as="geometry" />
        </mxCell>
        <mxCell id="FZnqLoCsShf8wST_4rnK-17" value="" style="html=1;points=[[0,0,0,0,5],[0,1,0,0,-5],[1,0,0,0,5],[1,1,0,0,-5]];perimeter=orthogonalPerimeter;outlineConnect=0;targetShapes=umlLifeline;portConstraint=eastwest;newEdgeStyle={&quot;curved&quot;:0,&quot;rounded&quot;:0};fillColor=#dae8fc;strokeColor=#6c8ebf;" vertex="1" parent="1">
          <mxGeometry x="403.07" y="470" width="10" height="40" as="geometry" />
        </mxCell>
        <mxCell id="FZnqLoCsShf8wST_4rnK-18" value="Trả về thông báo lỗi" style="html=1;verticalAlign=bottom;endArrow=open;dashed=1;endSize=8;curved=0;rounded=0;" edge="1" parent="1">
          <mxGeometry relative="1" as="geometry">
            <mxPoint x="677.07" y="480" as="sourcePoint" />
            <mxPoint x="413.0700000000001" y="480.0000000000001" as="targetPoint" />
          </mxGeometry>
        </mxCell>
        <mxCell id="FZnqLoCsShf8wST_4rnK-19" value="" style="shape=umlLifeline;perimeter=lifelinePerimeter;whiteSpace=wrap;html=1;container=1;dropTarget=0;collapsible=0;recursiveResize=0;outlineConnect=0;portConstraint=eastwest;newEdgeStyle={&quot;curved&quot;:0,&quot;rounded&quot;:0};participant=umlActor;fillColor=#fff2cc;strokeColor=#d6b656;" vertex="1" parent="1">
          <mxGeometry x="92.07" y="60" width="20" height="540" as="geometry" />
        </mxCell>
        <mxCell id="FZnqLoCsShf8wST_4rnK-20" value="" style="html=1;points=[[0,0,0,0,5],[0,1,0,0,-5],[1,0,0,0,5],[1,1,0,0,-5]];perimeter=orthogonalPerimeter;outlineConnect=0;targetShapes=umlLifeline;portConstraint=eastwest;newEdgeStyle={&quot;curved&quot;:0,&quot;rounded&quot;:0};fillColor=#dae8fc;strokeColor=#6c8ebf;" vertex="1" parent="FZnqLoCsShf8wST_4rnK-19">
          <mxGeometry x="5" y="130" width="10" height="30" as="geometry" />
        </mxCell>
        <mxCell id="FZnqLoCsShf8wST_4rnK-21" value="" style="html=1;points=[[0,0,0,0,5],[0,1,0,0,-5],[1,0,0,0,5],[1,1,0,0,-5]];perimeter=orthogonalPerimeter;outlineConnect=0;targetShapes=umlLifeline;portConstraint=eastwest;newEdgeStyle={&quot;curved&quot;:0,&quot;rounded&quot;:0};fillColor=#dae8fc;strokeColor=#6c8ebf;" vertex="1" parent="FZnqLoCsShf8wST_4rnK-19">
          <mxGeometry x="5" y="190" width="10" height="30" as="geometry" />
        </mxCell>
        <mxCell id="FZnqLoCsShf8wST_4rnK-22" value="" style="html=1;points=[[0,0,0,0,5],[0,1,0,0,-5],[1,0,0,0,5],[1,1,0,0,-5]];perimeter=orthogonalPerimeter;outlineConnect=0;targetShapes=umlLifeline;portConstraint=eastwest;newEdgeStyle={&quot;curved&quot;:0,&quot;rounded&quot;:0};fillColor=#dae8fc;strokeColor=#6c8ebf;" vertex="1" parent="FZnqLoCsShf8wST_4rnK-19">
          <mxGeometry x="5" y="430" width="10" height="40" as="geometry" />
        </mxCell>
        <mxCell id="FZnqLoCsShf8wST_4rnK-23" value="Hiển thị thông tin cá nhân vào form" style="html=1;verticalAlign=bottom;endArrow=open;dashed=1;endSize=8;curved=0;rounded=0;" edge="1" parent="1" target="FZnqLoCsShf8wST_4rnK-22">
          <mxGeometry x="-0.0034" relative="1" as="geometry">
            <mxPoint x="403.07" y="502" as="sourcePoint" />
            <mxPoint x="97.07" y="502" as="targetPoint" />
            <mxPoint as="offset" />
          </mxGeometry>
        </mxCell>
        <mxCell id="FZnqLoCsShf8wST_4rnK-24" value="Người dùng" style="text;html=1;strokeColor=none;fillColor=none;align=center;verticalAlign=middle;whiteSpace=wrap;rounded=0;" vertex="1" parent="1">
          <mxGeometry x="120" y="70" width="60" height="30" as="geometry" />
        </mxCell>
      </root>
    </mxGraphModel>
  </diagram>
</mxfile>
